<?xml version="1.0" encoding="UTF-8"?>
<svg width="424" height="120" viewBox="14 20 424 120" fill="none" xmlns="http://www.w3.org/2000/svg" role="img" aria-labelledby="title desc">
  <title id="title">CredFlow</title>
  <desc id="desc">Marca CredFlow — símbolo + wordmark. Plataforma de crédito, empréstimos e financiamentos.</desc>

<defs>
  <linearGradient id="cf-main" x1="18" y1="26" x2="112" y2="103" gradientUnits="userSpaceOnUse">
    <stop offset="0" stop-color="#255EEB"/>
    <stop offset="0.54" stop-color="#16C7E6"/>
    <stop offset="1" stop-color="#30D17A"/>
  </linearGradient>
  <linearGradient id="cf-accent" x1="37" y1="42" x2="107" y2="84" gradientUnits="userSpaceOnUse">
    <stop offset="0" stop-color="#7257FF"/>
    <stop offset="0.55" stop-color="#16C7E6"/>
    <stop offset="1" stop-color="#30D17A"/>
  </linearGradient>
  <linearGradient id="cf-word" x1="360" y1="0" x2="650" y2="120" gradientUnits="userSpaceOnUse">
    <stop offset="0" stop-color="#255EEB"/>
    <stop offset="0.7" stop-color="#16C7E6"/>
    <stop offset="1" stop-color="#30D17A"/>
  </linearGradient>
  <filter id="cf-soft-shadow" x="-30%" y="-30%" width="160%" height="160%">
    <feDropShadow dx="0" dy="7" stdDeviation="9" flood-color="#081221" flood-opacity="0.18"/>
  </filter>
</defs>

<g filter="url(#cf-soft-shadow)" transform="translate(24 16) scale(0.98)">
<g id="credflow-symbol" fill="none" stroke-linecap="round" stroke-linejoin="round">
  <path d="M33.5 67.8C33.5 45.9 50.4 29.1 72.1 28.1C93.4 27.2 108.4 40.2 108.4 58.7C108.4 82.2 89.2 100.9 64.6 100.9C47.2 100.9 33.5 91.5 27.7 78.1" stroke="url(#cf-main)" stroke-width="13.4"/>
  <path d="M47.9 74.8C56.4 62.4 68.9 57.8 83.4 61.2C90.3 62.9 95.5 66.7 99.6 72.2" stroke="url(#cf-accent)" stroke-width="10.6"/>
  <path d="M50.9 51.1C60.2 44.8 70.7 42.8 82.3 45.5C88.7 47 93.8 50.4 97.3 55.1" stroke="url(#cf-main)" stroke-width="8.2" opacity="0.92"/>
  <circle cx="27.7" cy="78.1" r="4.8" fill="#16C7E6" stroke="none"/>
  <circle cx="99.6" cy="72.2" r="4.3" fill="#30D17A" stroke="none"/>
</g>
</g>
<text x="158" y="92" font-family="Inter, Manrope, Avenir Next, Segoe UI, Arial, sans-serif" font-size="54" font-weight="760" letter-spacing="-2.2">
  <tspan fill="#FFFFFF">Cred</tspan><tspan fill="url(#cf-word)">Flow</tspan>
</text>

</svg>
